<svg width="173" height="150" viewBox="0 0 173 150" fill="none" xmlns="http://www.w3.org/2000/svg">
<rect width="173" height="150" rx="8" fill="#212529"/>
<path d="M139.223 69.5958L34.3898 69.544C32.4439 69.5442 31.4996 67.3299 32.9159 66.0882L82.5836 22.5442C83.4112 21.8186 84.7029 21.8185 85.5306 22.5439L139.223 69.5958V126.782C139.223 127.886 138.261 128.782 137.074 128.782H108.27C107.083 128.782 106.121 127.886 106.121 126.782V98.059C106.121 95.343 104.958 92.7382 102.89 90.8177C100.821 88.8971 98.0147 87.8182 95.0889 87.8182H73.0251C70.0992 87.8182 67.2933 88.8971 65.2244 90.8177C63.1555 92.7382 61.9932 95.343 61.9932 98.059V124.544C61.9932 126.234 64.1064 127.162 65.5084 126.088L139.223 69.5958Z" fill="#ADB5BD"/>
</svg>
