<svg width="314" height="105" viewBox="0 0 314 105" fill="none" xmlns="http://www.w3.org/2000/svg">
<path d="M88.8664 49.4242L29.481 49.3949C28.3787 49.395 27.8438 48.1406 28.6461 47.4373L56.7816 22.7707C57.2504 22.3597 57.982 22.3596 58.4509 22.7705L88.8664 49.4242V81.8185C88.8664 82.4442 88.3214 82.9515 87.649 82.9515H71.3321C70.6598 82.9515 70.1147 82.4442 70.1147 81.8185V65.5479C70.1147 64.0093 69.4563 62.5338 68.2843 61.4458C67.1124 60.3579 65.5229 59.7467 63.8654 59.7467H51.3669C49.7095 59.7467 48.12 60.3579 46.948 61.4458C45.776 62.5338 45.1176 64.0093 45.1176 65.5479V80.5509C45.1176 81.5083 46.3147 82.0341 47.1089 81.4254L88.8664 49.4242Z" fill="#ADB5BD"/>
<path d="M121.52 72.4855V36.7255H146V43.2055H128.96V52.2775H143.6V58.7575H128.96V72.4855H121.52ZM158.103 73.0615C155.991 73.0615 154.183 72.6135 152.679 71.7175C151.207 70.7895 150.087 69.5095 149.319 67.8775C148.551 66.2455 148.167 64.3415 148.167 62.1655V46.2775H155.367V61.5895C155.367 62.5815 155.559 63.4615 155.943 64.2295C156.359 64.9655 156.935 65.5415 157.671 65.9575C158.407 66.3735 159.239 66.5815 160.167 66.5815C161.127 66.5815 161.959 66.3735 162.663 65.9575C163.399 65.5415 163.959 64.9655 164.343 64.2295C164.759 63.4615 164.967 62.5815 164.967 61.5895V46.2775H172.167V72.4855H165.447V67.3015L165.831 68.4535C165.223 70.0215 164.231 71.1895 162.855 71.9575C161.511 72.6935 159.927 73.0615 158.103 73.0615ZM177.429 72.4855V46.2775H184.149V52.5655L183.669 51.6535C184.245 49.4455 185.189 47.9575 186.501 47.1895C187.845 46.3895 189.429 45.9895 191.253 45.9895H192.789V52.2295H190.533C188.773 52.2295 187.349 52.7735 186.261 53.8615C185.173 54.9175 184.629 56.4215 184.629 58.3735V72.4855H177.429ZM195.945 72.4855V46.2775H202.665V51.4615L202.281 50.3095C202.889 48.7415 203.865 47.5895 205.209 46.8535C206.585 46.0855 208.185 45.7015 210.009 45.7015C211.993 45.7015 213.721 46.1175 215.193 46.9495C216.697 47.7815 217.865 48.9495 218.697 50.4535C219.529 51.9255 219.945 53.6535 219.945 55.6375V72.4855H212.745V57.1735C212.745 56.1495 212.537 55.2695 212.121 54.5335C211.737 53.7975 211.177 53.2215 210.441 52.8055C209.737 52.3895 208.905 52.1815 207.945 52.1815C207.017 52.1815 206.185 52.3895 205.449 52.8055C204.713 53.2215 204.137 53.7975 203.721 54.5335C203.337 55.2695 203.145 56.1495 203.145 57.1735V72.4855H195.945ZM224.679 72.4855V46.2775H231.879V72.4855H224.679ZM224.679 43.9255V36.7255H231.879V43.9255H224.679Z" fill="white"/>
<path d="M245.356 72.4855L235.036 46.2775H242.812L249.964 66.1015H246.988L254.14 46.2775H261.916L251.596 72.4855H245.356ZM274.493 73.0615C272.381 73.0615 270.573 72.6135 269.069 71.7175C267.597 70.7895 266.477 69.5095 265.709 67.8775C264.941 66.2455 264.557 64.3415 264.557 62.1655V46.2775H271.757V61.5895C271.757 62.5815 271.949 63.4615 272.333 64.2295C272.749 64.9655 273.325 65.5415 274.061 65.9575C274.797 66.3735 275.629 66.5815 276.557 66.5815C277.517 66.5815 278.349 66.3735 279.053 65.9575C279.789 65.5415 280.349 64.9655 280.733 64.2295C281.149 63.4615 281.357 62.5815 281.357 61.5895V46.2775H288.557V72.4855H281.837V67.3015L282.221 68.4535C281.613 70.0215 280.621 71.1895 279.245 71.9575C277.901 72.6935 276.317 73.0615 274.493 73.0615ZM293.82 72.4855V36.1495H301.02V72.4855H293.82Z" fill="#ADB5BD"/>
</svg>
